<svg width="21" height="20" viewBox="0 0 21 20" fill="none" xmlns="http://www.w3.org/2000/svg">
    <path
        d="M20 20C19.8735 19.9947 19.7498 19.9816 19.6233 19.9816C14.9126 19.9816 10.2017 19.9947 5.4887 19.9737C4.06001 19.9685 2.7181 19.5926 1.47579 18.8723C0.837602 18.5043 0.351109 18.0312 0.0362325 17.3451C0.121414 17.2847 0.195982 17.2295 0.273074 17.1822C1.70107 16.2727 2.66449 15.0215 3.10591 13.3892C3.17533 13.1316 3.29058 12.9922 3.54511 12.8845C5.72471 11.9513 6.98635 10.2901 7.42106 7.99008C7.45521 7.80608 7.48938 7.61945 7.51512 7.47225C8.08848 7.37499 8.63739 7.33031 9.16131 7.18574C11.1749 6.63374 12.5475 5.34048 13.359 3.44265C13.4325 3.26917 13.5181 3.17718 13.7033 3.12986C15.4226 2.70141 16.6762 1.62895 17.6813 0.220036C17.7351 0.143809 17.8019 0.0754615 17.8609 0.00186184C17.882 0.00186184 17.9031 0.00186184 17.9242 0.00186184C19.0743 1.10323 19.7385 2.4622 20.0204 4.02094C20.0203 4.02357 20.0203 4.0262 20.0229 4.02883C20.1332 4.63603 20.1934 5.25111 20.1849 5.87145L19.9921 20L20 20ZM18.3026 5.87934C18.4013 4.83317 18.2277 3.83431 17.769 2.87226C17.7026 2.90906 17.6708 2.91958 17.6495 2.9406C16.8565 3.6766 15.9681 4.25752 14.9507 4.6334C14.8474 4.6702 14.7587 4.79374 14.6993 4.89626C14.278 5.63489 13.7915 6.32094 13.1667 6.90711C12.9958 7.06745 12.8249 7.22779 12.654 7.38813C12.6615 7.41705 12.669 7.44596 12.6765 7.4775C13.0555 7.51956 13.4374 7.54585 13.8108 7.61156C13.9397 7.63522 14.1071 7.72985 14.1609 7.84025C14.3661 8.26082 14.5367 8.69979 14.7074 9.13613C14.8144 9.40687 14.8577 9.71179 15.0046 9.95625C15.9839 11.5991 16.2996 13.3813 16.1182 15.2765C16.063 15.8442 15.9667 15.9468 15.3859 16.0098C14.3616 16.1202 13.341 16.1544 12.3174 15.8258C12.3219 16.0755 11.8657 16.0887 12.0483 16.4199C13.0291 16.2201 13.1283 16.0939 14.1575 16.9798C14.3633 17.1559 14.577 17.3346 14.8126 17.4582C14.988 17.5502 15.2087 17.6001 15.4091 17.5975C15.657 17.5922 15.8436 17.4398 15.8894 17.1743C15.9351 16.9114 15.8376 16.7195 15.5778 16.6328C15.4544 16.5934 15.3255 16.575 15.1994 16.5461C15.8667 16.1307 16.2674 16.3226 16.4879 17.1638C17.2162 17.1112 17.4645 17.2637 17.4636 17.7184C17.224 17.6974 16.9693 17.6211 16.7393 17.6685C16.4856 17.721 16.2529 17.9629 15.9985 17.679C15.9881 17.6658 15.9218 17.6974 15.8846 17.7158C15.3384 17.9497 14.8576 17.8288 14.4089 17.4845C14.2654 17.3741 14.1193 17.2663 13.9627 17.1506C13.7644 17.9707 13.5277 18.1179 12.7628 17.9576C12.7024 17.9445 12.6251 18.0049 12.5536 18.0286C12.6183 18.1153 12.6576 18.1311 12.6945 18.1311C14.4343 18.1337 16.1742 18.1311 17.9139 18.1363C18.1248 18.1363 18.1525 18.0365 18.1549 17.8656C18.1718 16.4357 18.1913 15.0057 18.2108 13.5758C18.2118 13.5048 18.189 13.4338 18.1768 13.3655C17.9632 13.7519 17.6453 13.8676 17.1898 13.8281C17.7109 14.4669 18.2038 15.053 17.7708 15.8731C17.8216 16.0203 17.906 16.207 17.8439 16.3147C17.6467 16.6617 17.6265 16.9824 17.8325 17.3425C17.641 17.2742 17.4045 17.2163 17.3301 17.0718C17.2222 16.8641 17.2285 16.5934 17.1845 16.341C16.4389 16.3095 16.2714 15.6445 16.6773 15.0662C16.6841 15.1529 16.6884 15.2213 16.6954 15.2896C16.728 15.605 16.9179 15.789 17.1948 15.7838C17.469 15.7785 17.68 15.5735 17.6632 15.2607C17.6504 15.0399 17.5983 14.8007 17.4875 14.6141C17.3252 14.3381 17.1045 14.0936 16.8943 13.8492C16.479 13.3708 16.3096 12.845 16.5474 12.2221C16.572 12.159 16.5756 12.088 16.5927 11.996C16.4635 11.996 16.3607 12.0013 16.2579 11.996C15.9445 11.9776 15.8902 11.8961 16.0441 11.6306C16.1467 11.4545 16.2885 11.2968 16.4255 11.1128C15.9334 10.8605 15.6618 10.4741 15.6883 9.88527C15.6956 9.7407 15.5395 9.59088 15.4492 9.44631C15.3512 9.28596 15.2425 9.1335 15.1135 8.93373C15.4463 9.0783 15.7083 9.19396 15.9704 9.30436C16.2797 9.43316 16.3869 9.69076 16.3986 9.99304C16.6045 9.96939 16.7867 9.95099 16.8976 9.93785C16.8009 10.0666 16.6463 10.1954 16.5966 10.3558C16.5442 10.5266 16.5251 10.7658 16.6076 10.9052C16.6798 11.0234 16.9315 11.1207 17.0795 11.0918C17.5712 10.9945 17.8478 10.4294 17.6829 9.95362C17.5207 9.48048 17.1254 9.27282 16.7061 9.09145C16.3917 8.95476 16.0773 8.81282 15.7574 8.68402C15.6316 8.63407 15.4899 8.58939 15.3554 8.59202C15.0416 8.59465 14.8982 8.47899 14.9157 8.16619C14.9332 7.84813 14.9718 7.53271 14.997 7.23305C15.0808 7.46699 15.1639 7.74825 15.511 7.81396C15.5741 7.8271 15.6563 7.97957 15.6525 8.06631C15.6431 8.37385 15.842 8.47373 16.0754 8.56836C16.5 8.74184 16.9408 8.8943 17.3384 9.12036C18.0159 9.50676 18.1874 10.269 17.7775 10.9393C17.6508 11.1444 17.4693 11.3152 17.3295 11.5124C17.1413 11.7778 16.9269 12.0354 16.7964 12.3298C16.5788 12.8188 16.7376 13.355 17.1011 13.5653C17.3392 13.702 17.6984 13.6468 17.8489 13.4338C18.0183 13.1946 17.9821 12.9502 17.8084 12.7373C17.5984 12.4797 17.3705 12.5638 17.1467 12.7399C17.128 12.7557 17.0963 12.7583 17.0699 12.7662C17.0491 12.7452 17.0257 12.7215 17.0049 12.7005C17.1306 12.5664 17.2642 12.435 17.3847 12.293C17.4571 12.2089 17.5479 12.1169 17.5704 12.0144C17.6325 11.7174 17.6996 11.4335 18.0663 11.2232C17.876 11.6464 17.8978 11.9802 18.2018 12.3036C18.2262 10.5135 18.25 8.77076 18.2734 7.05693C17.9977 7.36447 17.7141 7.66677 17.4514 7.98482C17.3683 8.08734 17.3399 8.23979 17.3038 8.37385C17.2983 8.39225 17.4105 8.47636 17.437 8.46322C17.5591 8.40276 17.6683 8.32128 17.7826 8.24768C17.8066 8.23191 17.8331 8.22139 17.865 8.20299C17.9166 8.47373 17.8638 8.67876 17.578 8.75499C17.324 8.82333 16.9937 8.68664 17.0201 8.49476C17.0787 8.06367 16.8528 8.00585 16.5133 7.96379C16.3422 7.94276 16.1674 7.81397 16.0266 7.69568C15.7895 7.49591 15.5845 7.25408 15.3474 7.04905C15.2354 6.95179 15.089 6.86243 14.947 6.8414C14.4418 6.77042 14.0284 6.92551 13.7862 7.48539C13.7898 6.83613 13.9236 6.49443 14.2796 6.29203C14.8562 5.9582 15.3793 6.06859 15.8442 6.57591C15.9604 6.17111 16.1534 5.93717 16.5538 5.96082C16.8225 5.9766 17.0186 6.09225 17.118 6.33934C17.22 6.59431 17.0937 6.95968 16.8404 7.16997C16.8415 7.09111 16.8664 7.00962 16.8382 6.94654C16.7871 6.83088 16.7068 6.72837 16.6397 6.6206C16.528 6.6942 16.3691 6.74414 16.3097 6.84928C16.1127 7.18574 16.3046 7.60894 16.68 7.72722C17.0369 7.84025 17.381 7.7351 17.6331 7.41968C17.9818 6.98333 18.1072 6.48917 17.9034 5.96871C17.6817 5.40883 17.1972 5.17225 16.6236 5.09602C16.4473 5.07237 16.2893 5.05922 16.1835 5.28265C16.0939 5.46928 15.7588 5.49294 15.5972 5.36151C15.4303 5.22746 15.3987 4.8358 15.5565 4.6702C15.7277 4.49145 15.9679 4.4678 16.1212 4.62814C16.3811 4.90414 16.6746 4.83842 16.9603 4.75957C17.4552 4.62288 17.5423 4.22597 17.1756 3.86323C17.1417 3.82905 17.0839 3.82117 17.0367 3.80014C17.5197 3.75809 17.8598 3.94734 17.9005 4.247C17.9246 4.4126 17.8929 4.61237 17.8144 4.75957C17.736 4.90151 17.5661 4.99088 17.4675 5.07237C17.7408 5.32734 18.0139 5.59808 18.3026 5.87934ZM1.75105 18.4045C1.85553 18.4754 1.92595 18.5306 2.00709 18.5727C3.04081 19.1247 4.15179 19.4243 5.32481 19.427C9.89821 19.4427 14.4746 19.4322 19.0482 19.4322C19.4542 19.4322 19.4542 19.4322 19.4599 19.0143C19.5223 14.4432 19.5847 9.86951 19.6471 5.29843C19.6635 4.09717 19.3571 2.98003 18.8074 1.92334C18.774 1.85763 18.7168 1.79981 18.6599 1.72358C18.5575 1.88129 18.4898 2.01535 18.396 2.12575C18.2192 2.33603 18.2139 2.52792 18.3318 2.78026C18.7055 3.59774 18.8782 4.46517 18.8631 5.37203C18.8019 9.66974 18.7458 13.9701 18.6872 18.2678C18.6856 18.3808 18.6841 18.4912 18.682 18.6437C18.5107 18.6437 18.3762 18.6437 18.2418 18.6437C14.1216 18.6437 9.99885 18.6358 5.87847 18.6489C4.71324 18.6542 3.59784 18.4859 2.5504 17.9734C2.48493 17.9418 2.3745 17.9208 2.32398 17.9523C2.13235 18.0864 1.95893 18.2389 1.75105 18.4045ZM2.7468 17.4897C3.41134 17.8577 4.07775 18.089 4.78144 18.0995C7.25894 18.1311 9.73433 18.1232 12.2122 18.1285C12.2596 18.1285 12.3073 18.1153 12.4156 18.0969C12.013 17.8472 11.6622 17.6711 11.2189 17.8945C11.4154 17.5975 11.6781 17.4739 12.003 17.4266C12.1086 17.4109 12.2337 17.3241 12.2982 17.2347C12.4245 17.0613 12.5502 16.9272 12.8218 16.9193C12.7653 17.0008 12.728 17.0323 12.7222 17.0691C12.6961 17.2426 12.5978 17.4976 12.6732 17.5738C12.8162 17.7184 13.06 17.8183 13.2681 17.8235C13.479 17.8262 13.6291 17.6474 13.6641 17.4003C13.7228 16.9587 13.4401 16.617 12.9768 16.5697C12.4819 16.5198 12.0682 16.7011 11.695 17.0061C11.4818 17.1795 11.2814 17.3714 11.0552 17.5291C10.2515 18.089 9.4052 17.9024 8.96345 17.0481C8.7734 16.6801 8.64441 16.2806 8.48625 15.8942C8.38421 15.6445 8.30344 15.3816 7.93938 15.4026C7.85495 15.4079 7.70324 15.3211 7.69096 15.2554C7.62185 14.9111 7.35444 14.8033 7.13914 14.7402C7.39 14.7087 7.68831 14.6771 7.98679 14.6325C8.3328 14.5825 8.56144 14.827 8.50131 15.1766C8.48427 15.2659 8.51707 15.3737 8.55539 15.4631C8.64728 15.6839 8.74715 15.8994 8.86026 16.1097C9.07874 16.5198 9.25179 16.9745 9.55027 17.3162C9.94479 17.7683 10.616 17.6501 10.9576 17.1454C11.1379 16.8773 11.1259 16.6013 10.9252 16.433C10.7115 16.2543 10.4054 16.2753 10.1836 16.4961C10.082 16.596 10.004 16.7169 9.91542 16.8299C9.89704 16.8247 9.88132 16.8168 9.86294 16.8115C9.88416 16.6091 9.90534 16.4094 9.92681 16.1886C9.08041 16.2043 9.26085 15.3448 8.88685 14.9347C9.07301 15.0083 9.22962 15.1214 9.38625 15.2344C9.49065 15.3106 9.59687 15.4473 9.70495 15.4473C10.3086 15.4473 10.7828 15.6602 11.0973 16.1833C11.1051 16.1938 11.1367 16.1912 11.1315 16.1886C11.3657 16.023 11.5866 15.8705 11.8102 15.7128C11.5402 15.5998 11.2702 15.492 11.0055 15.3737C10.437 15.1161 9.87396 14.8454 9.30274 14.593C8.873 14.4038 8.43782 14.2277 7.99992 14.0568C7.76657 13.9648 7.68956 13.8123 7.6799 13.5547C7.66466 13.1263 7.58875 12.7005 7.53924 12.272C7.37751 12.3404 7.31309 12.4245 7.23311 12.4902C6.63057 12.987 6.06668 13.5495 5.41005 13.9543C4.94482 14.2408 4.61931 14.5273 4.41457 15.0425C4.06207 15.9546 3.47151 16.7327 2.7468 17.4897ZM2.3589 17.1322C2.4253 17.0954 2.45708 17.0849 2.47842 17.0665C2.53984 17.0087 2.6013 16.9482 2.65748 16.8878C3.34005 16.1281 3.87094 15.2791 4.19256 14.3118C4.27506 14.0621 4.41151 13.9149 4.64513 13.7939C6.6151 12.7688 7.93614 11.1969 8.54518 9.06516C8.64485 8.71556 8.79946 8.58939 9.12702 8.53945C10.5191 8.32653 11.676 7.58265 12.7159 6.71785C13.4198 6.13168 13.9605 5.34048 14.3753 4.49408C14.4431 4.35477 14.6032 4.21808 14.7516 4.16025C15.724 3.79488 16.6036 3.27969 17.3541 2.55946C17.4263 2.48849 17.497 2.32815 17.4664 2.25454C17.3898 2.07055 17.2523 1.9102 17.1257 1.71831C17.019 1.81031 16.947 1.87077 16.8776 1.93386C16.1189 2.67249 15.2236 3.18243 14.2177 3.48997C13.99 3.55832 13.8568 3.66608 13.7669 3.879C13.3611 4.82791 12.7466 5.627 11.9546 6.29203C11.7652 6.45237 11.0174 6.9702 10.8394 7.07271C10.0423 7.53534 9.17411 7.79294 8.26341 7.88494C8.06278 7.90597 7.96712 7.96116 7.93782 8.1767C7.90253 8.44482 7.83033 8.71293 7.75033 8.97316C7.12201 10.9735 5.82684 12.3877 3.92995 13.2735C3.81057 13.3287 3.66931 13.4417 3.6361 13.5574C3.31315 14.6219 2.81238 15.5814 2.0342 16.3936C1.98069 16.4514 1.96272 16.6091 2.00133 16.6775C2.09924 16.8431 2.23965 16.985 2.3589 17.1322ZM14.3555 14.2539C14.4305 13.3944 14.1877 12.2536 13.6731 11.331C13.3772 10.8 13.0971 10.2717 12.9919 9.6671C12.9479 9.41476 12.7832 9.3175 12.552 9.25967C12.1185 9.15453 11.6662 9.07304 11.268 8.88904C10.8279 8.68664 10.4453 8.71556 9.98247 8.82596C9.29754 8.9863 8.84799 9.28333 8.76955 10.0088C8.75425 10.1639 8.74405 10.3321 8.78689 10.4767C8.98353 11.1338 9.22784 11.7752 9.39538 12.4402C9.45286 12.6716 9.53806 12.803 9.74313 12.8424C10.3899 12.966 10.958 13.2551 11.5096 13.5942C11.7214 13.723 11.9572 13.8229 12.1934 13.9017C12.8862 14.1357 13.5874 14.3249 14.3555 14.2539ZM8.44601 10.9236C8.40112 10.9288 8.35627 10.9314 8.31139 10.9367C8.23307 11.0734 8.17563 11.2258 8.07648 11.3441C7.87548 11.586 7.88286 11.8173 7.97653 12.1012C8.07268 12.3956 8.11842 12.7136 8.13264 13.0238C8.15056 13.4496 8.28654 13.723 8.72454 13.886C9.43534 14.1488 10.1789 14.3275 10.8322 14.7481C11.2633 15.0267 11.7617 15.2134 12.2523 15.3842C12.5723 15.4973 12.928 15.513 13.27 15.5603C13.4463 15.584 13.6256 15.584 13.8047 15.5919C14.1788 15.6103 14.5523 15.6681 14.9244 15.6418C15.497 15.5998 15.572 15.513 15.6277 15.103C15.8516 13.3734 15.5124 11.77 14.6391 10.2769C14.5361 10.1008 14.4702 9.90105 14.3964 9.70653C14.2209 9.23865 14.0614 8.76287 13.8673 8.3055C13.8239 8.20036 13.6669 8.11099 13.5434 8.08208C13.2071 8.00585 12.8377 8.02951 12.5284 7.90071C11.9674 7.66939 11.7006 8.09522 11.3256 8.3423C11.816 8.52368 12.3012 8.70505 12.8012 8.77076C13.1775 8.82071 13.3521 8.97053 13.4423 9.31225C13.5477 9.70127 13.6184 10.1218 13.8221 10.4583C14.5515 11.6727 14.916 12.9712 14.886 14.3985C14.879 14.7192 14.7621 14.7875 14.48 14.7902C13.589 14.7902 12.7262 14.6561 11.8866 14.3617C11.1101 14.0883 10.4803 13.4917 9.63572 13.3734C9.09109 13.2972 8.91379 12.9607 8.84705 12.4429C8.7803 11.925 8.58674 11.4282 8.44601 10.9236ZM1.42524 16.9745C1.20415 17.1427 1.007 17.2952 0.791251 17.4582C0.972872 17.6711 1.1338 17.8551 1.31285 18.0627C1.54734 17.8787 1.75778 17.7184 1.97096 17.5502C1.77085 17.3399 1.60715 17.1664 1.42524 16.9745ZM17.9394 1.97855C18.5389 1.31615 18.4667 1.19524 17.9384 0.698437C17.7906 0.903466 17.6429 1.10586 17.4871 1.31877C17.6344 1.53432 17.7791 1.74723 17.9394 1.97855Z"
        fill="#0D0101" fill-opacity="0.3" />
</svg>